<svg width="90" height="30" viewBox="0 0 90 30" fill="none" xmlns="http://www.w3.org/2000/svg">
<g id="rti">
<g id="Frame 483680">
<g id="LtL-unit">
<g id="Group">
<g id="Group_2">
<path id="Vector" d="M12.1248 4.57796H16.2418V11.3901H17.517V13.8408H12.1248V11.3901H13.5073V7.02714H12.1248V4.57796ZM13.3653 1.59156C13.3653 1.37029 13.4044 1.16282 13.4844 0.969017C13.5645 0.775217 13.6748 0.607647 13.8168 0.464204C13.9573 0.322287 14.1251 0.207582 14.317 0.125179C14.5089 0.0412494 14.716 0 14.9411 0C15.1527 0 15.3535 0.0412494 15.5424 0.125179C15.7313 0.207582 15.8973 0.322287 16.0378 0.464204C16.1798 0.607647 16.2919 0.775217 16.375 0.969017C16.4581 1.16282 16.4989 1.37029 16.4989 1.59156C16.4989 1.8113 16.4581 2.01918 16.375 2.21298C16.2919 2.40678 16.1798 2.57435 16.0378 2.71779C15.8973 2.86124 15.7313 2.97442 15.5424 3.05682C15.3535 3.14075 15.1527 3.18349 14.9411 3.18349C14.716 3.18349 14.5089 3.14075 14.317 3.05682C14.1251 2.97442 13.9573 2.86124 13.8168 2.71779C13.6748 2.57435 13.5645 2.40678 13.4844 2.21298C13.4044 2.01918 13.3653 1.8113 13.3653 1.59156Z" fill="white"/>
</g>
<g id="Group_3">
<path id="Vector_2" d="M25.0825 7.77825C24.8287 7.45626 24.5461 7.21356 24.2334 7.05027C23.9206 6.88547 23.5521 6.81537 23.126 6.83978C22.7845 6.81537 22.473 6.86419 22.192 6.98321C21.9125 7.10224 21.6693 7.26839 21.4668 7.48356C21.2628 7.6972 21.1042 7.952 20.9924 8.24804C20.8806 8.54256 20.8246 8.87534 20.8246 9.24463C20.8246 9.57271 20.8838 9.88228 21.0016 10.1753C21.1195 10.4667 21.2809 10.7187 21.4834 10.9308C21.6874 11.1414 21.929 11.3077 22.2101 11.4267C22.4896 11.5457 22.7966 11.6176 23.126 11.6405C23.404 11.6176 23.6563 11.5596 23.8829 11.4665C24.1111 11.375 24.3118 11.2558 24.4901 11.1093C24.6669 10.9628 24.818 10.7995 24.9449 10.6179C25.0719 10.4347 25.1716 10.264 25.2426 10.1037L27.6769 10.7829C27.5771 11.14 27.4033 11.5122 27.1586 11.8998C26.9138 12.2874 26.5949 12.6416 26.2021 12.9605C25.8108 13.2794 25.3438 13.5432 24.8044 13.7507C24.2635 13.9597 23.6487 14.0636 22.9582 14.0636C22.2556 14.0636 21.609 13.9341 21.0197 13.6747C20.4289 13.4168 19.9212 13.0626 19.4966 12.6155C19.072 12.1684 18.7397 11.6434 18.501 11.0422C18.2623 10.4394 18.1414 9.79399 18.1414 9.10119C18.1414 8.41602 18.2651 7.77972 18.5099 7.19222C18.7546 6.60624 19.0918 6.09339 19.5239 5.65543C19.9545 5.21747 20.4665 4.8758 21.0588 4.63164C21.6526 4.38749 22.2963 4.27603 22.9928 4.30044C23.4899 4.27603 23.9705 4.33262 24.4374 4.46995C24.9027 4.60729 25.3453 4.81297 25.7639 5.08765H27.5256V7.77825H25.0825Z" fill="white"/>
</g>
<g id="Group_4">
<path id="Vector_3" d="M31.042 9.79082L31.0675 10.0673C31.1324 10.3358 31.2427 10.5707 31.3998 10.7736C31.5555 10.9766 31.7401 11.1459 31.9532 11.2833C32.1662 11.4206 32.4019 11.5231 32.6618 11.5918C32.9216 11.6604 33.1845 11.6953 33.449 11.6953C33.7149 11.6953 33.9672 11.6786 34.2059 11.645C34.4461 11.613 34.6772 11.5689 34.9009 11.5124C35.126 11.4544 35.3433 11.3886 35.5564 11.3153C35.7694 11.2405 35.9843 11.1612 36.2034 11.0773L37.1761 12.9117C36.8392 13.1193 36.5312 13.2961 36.2517 13.4426C35.9707 13.5891 35.6895 13.7098 35.4055 13.8044C35.1229 13.9005 34.8224 13.9706 34.5036 14.0149C34.1848 14.0591 33.8131 14.0819 33.387 14.0819C32.5907 14.0819 31.8821 13.9492 31.2626 13.6837C30.6431 13.4197 30.1216 13.0594 29.7 12.6062C29.2785 12.153 28.9568 11.6235 28.7347 11.0147C28.5141 10.4073 28.4038 9.76352 28.4038 9.08446C28.4038 8.40387 28.5201 7.76578 28.7528 7.17064C28.9854 6.57398 29.3149 6.05369 29.7395 5.60963C30.1656 5.16557 30.6718 4.81614 31.2626 4.55977C31.8534 4.3034 32.5077 4.17529 33.2284 4.17529C33.9476 4.17529 34.5864 4.29594 35.1439 4.53704C35.703 4.77815 36.173 5.11235 36.5567 5.5381C36.9405 5.96538 37.2351 6.46569 37.4421 7.04099C37.6491 7.61629 37.7611 8.23441 37.7792 8.89669C37.7958 9.04471 37.8064 9.19279 37.8095 9.33929C37.8125 9.48425 37.8079 9.63517 37.7958 9.79082H31.042ZM33.1572 6.411C32.8263 6.411 32.5452 6.45046 32.311 6.53133C32.0783 6.61221 31.882 6.72215 31.7233 6.86254C31.5632 7.0014 31.4363 7.16161 31.3427 7.34015C31.2475 7.51869 31.1735 7.7066 31.1206 7.90346H34.9536C34.9128 7.7005 34.854 7.50975 34.7769 7.33121C34.6999 7.15267 34.5942 6.9954 34.4582 6.85807C34.3222 6.72073 34.1499 6.61221 33.9414 6.53133C33.7314 6.45046 33.4699 6.411 33.1572 6.411Z" fill="white"/>
</g>
<g id="Group_5">
<path id="Vector_4" d="M46.7022 8.51204C46.7022 7.99321 46.5662 7.5857 46.2943 7.29118C46.0238 6.99666 45.6626 6.84858 45.2138 6.84858C44.9071 6.84858 44.5974 6.91727 44.2846 7.05461C43.9719 7.19042 43.6681 7.44702 43.3735 7.82393V11.39H44.8604V13.8407H39.1594V11.39H40.5044V7.02704H39.176V4.57786H43.3554V5.39115C43.7392 5.08747 44.1683 4.84648 44.6443 4.671C45.1187 4.49551 45.6187 4.40723 46.1445 4.40723C47.2475 4.40723 48.0981 4.71821 48.6934 5.34234C49.2903 5.96494 49.588 6.87449 49.588 8.07392V11.39H50.889V13.8407H46.7022V8.51204Z" fill="white"/>
</g>
<g id="Group_6">
<path id="Vector_5" d="M57.9356 7.41186C57.9356 7.26842 57.8905 7.13105 57.7999 6.99982C57.7077 6.87011 57.5731 6.75398 57.3963 6.65632C57.2195 6.55713 57.0021 6.47926 56.7453 6.41975C56.4884 6.36024 56.1981 6.32996 55.8732 6.32996C55.7493 6.32996 55.6165 6.34064 55.4745 6.362C55.334 6.38184 55.2025 6.41999 55.0816 6.4734C54.9607 6.52681 54.8595 6.59978 54.781 6.69134C54.7009 6.78443 54.66 6.9022 54.66 7.04564C54.66 7.11736 54.6706 7.18605 54.6917 7.25167C54.7129 7.31576 54.7523 7.37955 54.8112 7.43906C54.8702 7.49857 54.9516 7.55375 55.0543 7.6041C55.1586 7.65446 55.2917 7.69544 55.4579 7.72444L57.1215 8.05564C57.7244 8.17467 58.2289 8.32417 58.6354 8.50271C59.0433 8.68125 59.371 8.89055 59.6188 9.1286C59.8666 9.36665 60.0449 9.63217 60.1537 9.92363C60.2625 10.2166 60.3186 10.5322 60.3186 10.8725C60.3186 11.4021 60.196 11.8676 59.9497 12.2674C59.7049 12.6657 59.3832 12.9984 58.9858 13.264C58.5869 13.5295 58.1384 13.7291 57.6398 13.8634C57.1412 13.9962 56.638 14.0635 56.1303 14.0635C55.7994 14.0635 55.5003 14.0436 55.2314 14.0009C54.9639 13.9597 54.7203 13.9031 54.5058 13.8314C54.2897 13.7596 54.0981 13.6742 53.9303 13.5765C53.7626 13.4789 53.6069 13.3692 53.4648 13.2502H51.8635V10.7645H54.3686V10.8178C54.3746 10.9917 54.4274 11.1411 54.5287 11.2693C54.6284 11.3975 54.7599 11.5075 54.9215 11.596C55.0847 11.6861 55.269 11.753 55.4745 11.7972C55.6815 11.8415 55.9007 11.8646 56.1303 11.8646C56.6622 11.8646 57.0472 11.7942 57.2905 11.6538C57.5322 11.5134 57.6531 11.3333 57.6531 11.1136C57.6531 10.9396 57.5942 10.7934 57.4764 10.6714C57.3585 10.5493 57.1485 10.4514 56.8478 10.3796L55.148 10.0134C54.0798 9.80436 53.2732 9.45817 52.7308 8.97138C52.1883 8.48612 51.9163 7.86191 51.9163 7.09892C51.9163 6.6518 52.0191 6.24429 52.2261 5.87805C52.4331 5.51182 52.7125 5.199 53.0675 4.93959C53.4211 4.68017 53.8366 4.47874 54.311 4.3353C54.7855 4.19338 55.2946 4.12183 55.8386 4.12183C56.2102 4.12183 56.5411 4.14311 56.8297 4.18889C57.1183 4.23314 57.3784 4.29115 57.6095 4.36287C57.8392 4.43459 58.0415 4.51851 58.2152 4.6177C58.389 4.71536 58.5448 4.81898 58.6808 4.9258H60.2205V7.41186H57.9356Z" fill="white"/>
</g>
<g id="Group_7">
<path id="Vector_6" d="M4.5254 20.4961H6.35798V22.8387H4.50695L4.48888 26.7543C4.48888 26.9817 4.50724 27.1649 4.542 27.3038C4.57826 27.4442 4.62967 27.5571 4.69766 27.6395C4.76565 27.7234 4.84707 27.7796 4.94075 27.8101C5.03594 27.8391 5.14479 27.8544 5.26868 27.8544C5.4923 27.8544 5.69033 27.8316 5.86258 27.7874C6.03331 27.7431 6.20385 27.6897 6.37458 27.6302L6.75526 29.3562C6.45459 29.547 6.1191 29.6993 5.75044 29.8122C5.38177 29.9252 4.9438 29.9817 4.43613 29.9817C4.07653 29.9817 3.73184 29.9191 3.40548 29.794C3.07761 29.6688 2.78936 29.4799 2.54157 29.2266C2.29378 28.9733 2.09571 28.6558 1.94915 28.2743C1.80108 27.8928 1.7299 27.4487 1.73594 26.9421L1.76324 22.8387H0V20.4961H1.77098L1.78906 18.2775L4.542 16.9546L4.5254 20.4961Z" fill="white"/>
</g>
<g id="Group_8">
<path id="Vector_7" d="M7.53076 25.0905C7.53076 24.4176 7.65159 23.7859 7.89484 23.1954C8.13659 22.6048 8.47197 22.0891 8.90409 21.6481C9.33471 21.2071 9.84849 20.8591 10.4438 20.6027C11.0406 20.3464 11.6949 20.2183 12.4095 20.2183C13.1242 20.2183 13.7799 20.3464 14.3797 20.6027C14.978 20.8591 15.4932 21.2071 15.9238 21.6481C16.3545 22.0891 16.6899 22.6048 16.9287 23.1954C17.1674 23.7859 17.2865 24.4176 17.2865 25.0905C17.2865 25.765 17.1702 26.3985 16.9375 26.9906C16.7048 27.5842 16.3739 28.1031 15.9463 28.5471C15.5188 28.9912 15.005 29.3406 14.4052 29.597C13.8068 29.8533 13.1408 29.9815 12.4095 29.9815C11.6722 29.9815 11.0026 29.8533 10.4043 29.597C9.80448 29.3406 9.29215 28.9926 8.86758 28.5516C8.44301 28.1106 8.11388 27.5931 7.8812 26.9995C7.64851 26.4074 7.53076 25.7711 7.53076 25.0905ZM10.1778 25.0905C10.1778 25.443 10.2366 25.7665 10.356 26.0611C10.4739 26.3556 10.6341 26.6107 10.8381 26.8259C11.0421 27.0411 11.2778 27.2072 11.5467 27.3263C11.8142 27.4453 12.1028 27.5047 12.4095 27.5047C12.7223 27.5047 13.0123 27.4467 13.2812 27.3307C13.5501 27.2147 13.7827 27.0485 13.9806 26.8349C14.1785 26.6197 14.3328 26.3649 14.4461 26.0704C14.5579 25.7759 14.614 25.4492 14.614 25.0905C14.614 24.7213 14.5579 24.3871 14.4461 24.0895C14.3328 23.7919 14.1785 23.5389 13.9806 23.3298C13.7827 23.1208 13.5501 22.9621 13.2812 22.8522C13.0123 22.7408 12.7223 22.6889 12.4095 22.695C12.1028 22.6889 11.8142 22.7408 11.5467 22.8522C11.2778 22.9621 11.0421 23.1208 10.8381 23.3298C10.6341 23.5389 10.4739 23.7919 10.356 24.0895C10.2366 24.3871 10.1778 24.7213 10.1778 25.0905Z" fill="white"/>
</g>
<g id="Group_9">
<path id="Vector_8" d="M21.425 16.2034H27.1711V18.6619H25.7538V27.3081H28.6757C28.7513 27.3081 28.8271 27.2869 28.9011 27.2411C28.9751 27.1968 29.04 27.1388 29.0959 27.0671C29.1518 26.9954 29.1972 26.9189 29.2335 26.835C29.2682 26.7511 29.2862 26.6702 29.2862 26.5939V24.7781H32.1539V29.7588H21.425V27.3081H22.815V18.6619H21.425V16.2034Z" fill="white"/>
</g>
<g id="Group_10">
<path id="Vector_9" d="M0.501953 0.285156H6.24797V2.74365H4.83074V11.3899H7.75262C7.82817 11.3899 7.90397 11.3686 7.978 11.3229C8.05204 11.2786 8.11687 11.2206 8.17277 11.1489C8.22867 11.0772 8.2741 11.0007 8.31036 10.9168C8.34511 10.8328 8.36311 10.752 8.36311 10.6757V8.8599H11.2308V13.8406H0.501953V11.3899H1.89189V2.74365H0.501953V0.285156Z" fill="white"/>
</g>
<g id="Group_11">
<path id="Vector_10" d="M35.4301 25.7088L35.4574 25.9852C35.5223 26.2538 35.6326 26.4886 35.7897 26.6916C35.9454 26.8946 36.1296 27.0639 36.3427 27.2013C36.5557 27.3386 36.7914 27.4411 37.0513 27.5097C37.3112 27.5784 37.5726 27.6133 37.8385 27.6133C38.1044 27.6133 38.3571 27.5966 38.5958 27.563C38.8345 27.531 39.0671 27.4868 39.2908 27.4304C39.5159 27.3724 39.7332 27.3065 39.9463 27.2333C40.1578 27.1585 40.3739 27.0792 40.5914 26.9952L41.566 28.8297C41.2291 29.0372 40.9207 29.2141 40.6412 29.3606C40.3602 29.5071 40.0794 29.6277 39.7954 29.7223C39.5128 29.8185 39.2104 29.8886 38.8916 29.9328C38.5728 29.9771 38.2011 29.9999 37.7765 29.9999C36.9803 29.9999 36.272 29.8671 35.6525 29.6016C35.033 29.3376 34.5115 28.9774 34.0899 28.5242C33.6669 28.071 33.3467 27.5415 33.1246 26.9326C32.904 26.3253 32.7922 25.6815 32.7922 25.0024C32.7922 24.3218 32.9085 23.6837 33.1427 23.0886C33.3754 22.4919 33.7048 21.9717 34.1294 21.5276C34.554 21.0835 35.0617 20.7341 35.6525 20.4777C36.2433 20.2214 36.8972 20.0933 37.6179 20.0933C38.3371 20.0933 38.9763 20.2139 39.5339 20.455C40.0914 20.6961 40.5629 21.0303 40.9467 21.4561C41.3304 21.8833 41.625 22.3837 41.832 22.959C42.0374 23.5343 42.1507 24.1524 42.1673 24.8147C42.1854 24.9627 42.196 25.1108 42.199 25.2573C42.202 25.4022 42.1978 25.5531 42.1857 25.7088H35.4301ZM37.5471 22.329C37.2162 22.329 36.9351 22.3684 36.7009 22.4493C36.4682 22.5302 36.2719 22.6401 36.1132 22.7805C35.9531 22.9194 35.8262 23.0796 35.7326 23.2581C35.6374 23.4367 35.563 23.6246 35.5101 23.8214H39.3435C39.3027 23.6185 39.2439 23.4277 39.1668 23.2492C39.0898 23.0706 38.9841 22.9134 38.8481 22.776C38.7121 22.6387 38.5399 22.5302 38.3298 22.4493C38.1213 22.3684 37.8598 22.329 37.5471 22.329Z" fill="white"/>
</g>
<g id="Group_12">
<path id="Vector_11" d="M49.1884 29.2583C48.9814 29.3896 48.7925 29.5009 48.6218 29.5925C48.451 29.6856 48.2787 29.7603 48.1079 29.8168C47.9372 29.8732 47.7603 29.9145 47.576 29.942C47.3932 29.9694 47.1938 29.9815 46.9747 29.9815C46.4263 29.9815 45.9351 29.9068 45.5 29.7542C45.0663 29.6016 44.7009 29.3938 44.4033 29.1283C44.1056 28.8628 43.8758 28.55 43.7172 28.1898C43.557 27.8282 43.4785 27.436 43.4785 27.0133C43.4785 26.5845 43.5584 26.188 43.7216 25.8249C43.8833 25.4601 44.1176 25.1488 44.4258 24.8894C44.7325 24.6315 45.1088 24.4282 45.5546 24.2817C46.0003 24.1352 46.508 24.0623 47.0806 24.0623C47.5006 24.0623 47.883 24.0851 48.2275 24.1294C48.5735 24.1751 48.8937 24.2299 49.1884 24.2955V24.0086C49.1884 23.7767 49.1444 23.5752 49.0552 23.4058C48.9661 23.2349 48.8424 23.0963 48.6838 22.9849C48.5236 22.875 48.3316 22.7942 48.1079 22.7438C47.8843 22.6935 47.6379 22.6674 47.3735 22.6674C46.819 22.6674 46.3295 22.7237 45.9079 22.8336C45.4864 22.9435 45.0801 23.1037 44.6903 23.3112L43.8411 21.5777C44.4425 21.1596 45.0725 20.8407 45.7313 20.621C46.3885 20.3997 47.0865 20.2898 47.8254 20.2898C48.3965 20.2898 48.9269 20.3539 49.4134 20.482C49.9014 20.6102 50.3182 20.818 50.6657 21.1079C51.0148 21.3963 51.2882 21.7732 51.4846 22.2386C51.6826 22.7041 51.7823 23.2703 51.7823 23.9371V27.308H53.0125V29.7587H49.1884V29.2583ZM47.1695 27.8724C47.588 27.8724 47.9689 27.8037 48.3119 27.6664C48.6534 27.5291 48.9466 27.3629 49.1884 27.1661V25.9851H47.064C46.928 25.9851 46.7948 26.0064 46.6649 26.0476C46.5349 26.0904 46.4187 26.1498 46.3159 26.2261C46.2117 26.3039 46.1285 26.4 46.0666 26.513C46.0046 26.6259 45.9743 26.7572 45.9743 26.9068C45.9743 27.1799 46.0726 27.4102 46.2706 27.5949C46.4685 27.7795 46.7676 27.8724 47.1695 27.8724Z" fill="white"/>
</g>
<g id="Group_13">
<path id="Vector_12" d="M62.8396 23.8667H60.3526V22.91C60.1109 22.91 59.8889 22.9252 59.6879 22.9588C59.4885 22.9909 59.3115 23.046 59.1619 23.1239C59.0108 23.2017 58.884 23.3084 58.7812 23.4457C58.677 23.5831 58.6059 23.7524 58.5636 23.9554V27.308H60.4327V29.7587H54.448V27.308H55.8199V22.945H54.4646V20.4958H58.5455V21.1474C58.8054 20.9399 59.0986 20.7783 59.4234 20.6654C59.7468 20.5524 60.1016 20.4958 60.4854 20.4958C60.8737 20.4958 61.2758 20.4991 61.6898 20.5037C62.1023 20.5098 62.486 20.5126 62.8396 20.5126V23.8667Z" fill="white"/>
</g>
<g id="Group_14">
<path id="Vector_13" d="M71.8887 24.43C71.8887 23.9112 71.7526 23.5037 71.4807 23.2091C71.2087 22.9146 70.849 22.7666 70.4002 22.7666C70.0935 22.7666 69.7838 22.8352 69.471 22.9726C69.1583 23.1084 68.8546 23.365 68.5584 23.7419V27.308H70.0468V29.7587H64.3447V27.308H65.6908V22.945H64.3628V20.4958H68.5418V21.3091C68.9256 21.0054 69.3548 20.7645 69.8292 20.589C70.3051 20.4135 70.8051 20.3252 71.3294 20.3252C72.4339 20.3252 73.283 20.6362 73.8799 21.2603C74.4752 21.8829 74.7744 22.7925 74.7744 23.9919V27.308H86.8935V29.7587H71.8887V24.43Z" fill="white"/>
</g>
<g id="Group_15">
<path id="Vector_14" fill-rule="evenodd" clip-rule="evenodd" d="M85.6608 19.0926V11.6206H88.1267V16.8234L85.6608 19.0926ZM88.1267 19.7685V29.7586H85.6608V22.0377L88.1267 19.7685Z" fill="white"/>
</g>
<g id="Group_16">
<path id="Vector_15" d="M82.8051 22.9069L78.0437 18.1387L76.3 19.8849L81.0614 24.6531L82.8051 22.9069Z" fill="white"/>
</g>
<g id="Group_17">
<path id="Vector_16" d="M81.3309 24.3806L89.863 15.8362L88.1193 14.09L79.5872 22.6344L81.3309 24.3806Z" fill="white"/>
</g>
<g id="Group_18">
<path id="Vector_17" fill-rule="evenodd" clip-rule="evenodd" d="M74.8882 14.0861C72.1042 14.0969 66.8846 14.0821 66.5685 14.0821C65.7717 14.0821 65.0635 13.9494 64.4438 13.6841C63.8241 13.4189 63.3032 13.0597 62.8812 12.6067C62.4592 12.1537 62.1375 11.6232 61.9162 11.0152C61.6949 10.4072 61.5842 9.76341 61.5842 9.08386C61.5842 8.40432 61.7008 7.76647 61.9339 7.17038C62.1671 6.5743 62.4961 6.05422 62.921 5.61012C63.346 5.16604 63.8536 4.81586 64.4438 4.55954C65.034 4.30321 65.6891 4.17505 66.4092 4.17505C67.1292 4.17505 67.7681 4.29576 68.3258 4.53717C68.8836 4.77859 69.3543 5.11238 69.7379 5.53859C70.1215 5.96479 70.4166 6.46554 70.6232 7.04077C70.8298 7.61599 70.9419 8.23443 70.9596 8.89609C70.9773 9.04511 70.9877 9.19265 70.9906 9.3387C70.9936 9.48474 70.9891 9.63522 70.9773 9.79021H64.2224L64.249 10.0674C64.3139 10.3356 64.4246 10.5711 64.581 10.7738C64.7374 10.9764 64.9218 11.1463 65.1343 11.2834C65.3468 11.4205 65.5829 11.5233 65.8426 11.5919C66.1022 11.6604 66.3649 11.6947 66.6305 11.6947C66.7907 11.6947 71.2898 11.6797 74.8882 11.6605C77.2561 11.6479 79.234 11.6336 79.3288 11.6206H88.1264V14.09H74.8882V14.0861ZM66.3383 6.41039C66.0078 6.41039 65.726 6.45062 65.4929 6.53109C65.2597 6.61156 65.0635 6.72186 64.9041 6.86194C64.7448 7.00202 64.6179 7.16148 64.5234 7.3403C64.429 7.51912 64.3552 7.70687 64.3021 7.90358H68.1355C68.0942 7.70091 68.0352 7.51018 67.9584 7.33136C67.8817 7.15253 67.7755 6.99456 67.6397 6.85747C67.504 6.72037 67.3313 6.61156 67.1218 6.53109C66.9123 6.45062 66.6511 6.41039 66.3383 6.41039Z" fill="white"/>
</g>
</g>
</g>
</g>
</g>
</svg>
